<svg width="526" height="542" xmlns="http://www.w3.org/2000/svg" xmlns:xlink="http://www.w3.org/1999/xlink" xml:space="preserve" overflow="hidden"><g transform="translate(-26 -60)"><g><g><g><g><path d="M165.9 397.399C165.9 399.399 163.6 400.999 160.7 400.999 157.4 401.299 155.1 399.699 155.1 397.399 155.1 395.399 157.4 393.799 160.3 393.799 163.3 393.499 165.9 395.099 165.9 397.399ZM134.8 392.899C134.1 394.899 136.1 397.199 139.1 397.799 141.7 398.799 144.7 397.799 145.3 395.799 145.9 393.799 144 391.499 141 390.599 138.4 389.899 135.5 390.899 134.8 392.899ZM179 391.199C176.1 391.899 174.1 393.799 174.4 396.099 174.7 398.099 177.3 399.399 180.3 398.699 183.2 397.999 185.2 396.099 184.9 394.099 184.6 392.199 181.9 390.899 179 391.199ZM244.799 7.99998C106.1 7.99998 0 113.3 0 251.999 0 362.899 69.7999 457.799 169.5 491.199 182.3 493.499 186.8 485.599 186.8 479.099 186.8 472.899 186.5 438.699 186.5 417.699 186.5 417.699 116.5 432.699 101.8 387.899 101.8 387.899 90.3998 358.799 73.9998 351.299 73.9998 351.299 51.0999 335.599 75.5998 335.899 75.5998 335.899 100.5 337.899 114.2 361.699 136.1 400.299 172.8 389.199 187.1 382.599 189.4 366.599 195.9 355.499 203.1 348.899 147.2 342.699 90.7998 334.599 90.7998 238.399 90.7998 210.9 98.3998 197.1 114.4 179.5 111.8 173 103.3 146.2 117 111.6 137.9 105.1 186 138.6 186 138.6 206 133 227.5 130.1 248.799 130.1 270.099 130.1 291.599 133 311.599 138.6 311.599 138.6 359.699 105 380.599 111.6 394.299 146.3 385.799 173 383.199 179.5 399.199 197.2 408.999 211 408.999 238.399 408.999 334.899 350.099 342.599 294.199 348.899 303.399 356.799 311.199 371.799 311.199 395.299 311.199 428.999 310.899 470.699 310.899 478.899 310.899 485.399 315.499 493.299 328.199 490.999 428.199 457.799 495.999 362.899 495.999 251.999 495.999 113.3 383.499 7.99998 244.799 7.99998ZM97.1998 352.899C95.8998 353.899 96.1998 356.199 97.8998 358.099 99.4998 359.699 101.8 360.399 103.1 359.099 104.4 358.099 104.1 355.799 102.4 353.899 100.8 352.299 98.4998 351.599 97.1998 352.899ZM86.3998 344.799C85.6998 346.099 86.6998 347.699 88.6998 348.699 90.2998 349.699 92.2998 349.399 92.9998 347.999 93.6998 346.699 92.6998 345.099 90.6998 344.099 88.6998 343.499 87.0998 343.799 86.3998 344.799ZM118.8 380.399C117.2 381.699 117.8 384.699 120.1 386.599 122.4 388.899 125.3 389.199 126.6 387.599 127.9 386.299 127.3 383.299 125.3 381.399 123.1 379.099 120.1 378.799 118.8 380.399ZM107.4 365.699C105.8 366.699 105.8 369.299 107.4 371.599 109 373.899 111.7 374.899 113 373.899 114.6 372.599 114.6 369.999 113 367.699 111.6 365.399 109 364.399 107.4 365.699Z" fill="#000000" fill-rule="nonzero" fill-opacity="1" transform="matrix(1 0 0 1.00092 42.5 74.5132)"/></g></g></g></g></g></svg>